<?xml version="1.0" encoding="UTF-8"?>
<svg id="Travel" xmlns="http://www.w3.org/2000/svg" width="187.5" height="32" version="1.1" viewBox="6 5 252 24">
  <!-- Generator: Adobe Illustrator 29.8.1, SVG Export Plug-In . SVG Version: 2.1.1 Build 2)  -->
  <defs>
    <style>
      .st0 {
        fill: #fff;
      }

      .st0, .st1, .st2, .st3 {
        isolation: isolate;
      }

      .st0, .st3 {
        font-family: Poppins-Bold, Poppins;
        font-size: 36px;
        font-weight: 700;
      }

      .st4, .st5, .st6 {
        fill: #3c9;
      }

      .st1, .st6 {
        display: none;
      }

      .st5 {
        stroke: #fff;
        stroke-miterlimit: 10;
        stroke-width: 3px;
      }

      .st3 {
        fill: #231f20;
      }
    </style>
  </defs>
  <path class="st6" d="M-16.1-3c-3.9,0-7.1,3.2-7.1,7.1v21.4c0,3.9,3.2,7.1,7.1,7.1H26.7c3.9,0,7.1-3.2,7.1-7.1V4.1c0-3.9-3.2-7.1-7.1-7.1h-4.2c-1.9,0-3.7-.8-5-2.1l-3-3c-1.3-1.3-3.2-2.1-5.1-2.1H1.1c-1.9,0-3.7.8-5.1,2.1l-3,3c-1.3,1.3-3.1,2.1-5.1,2.1h-4.2,0ZM-14.4,4.1c-1,0-1.8-.8-1.8-1.8s.8-1.8,1.8-1.8,1.8.8,1.8,1.8-.8,1.8-1.8,1.8M17.8,13c0,6.9-5.6,12.5-12.5,12.5s-12.5-5.6-12.5-12.5S-1.6.6,5.3.6s12.5,5.6,12.5,12.5"/>
  <path class="st4" d="M36,6.4v-2.1c0-.7-.6-1.3-1.3-1.3h-14c-.7,0-1.3.6-1.3,1.3v.8c0,.7-.6,1.3-1.3,1.3h-8.3c-.7,0-1.3-.6-1.3-1.3h0c0-.7-.6-1.3-1.3-1.3h-2.4c-.7,0-1.3.6-1.3,1.3h0c0,.7-.6,1.3-1.3,1.3h-.7c-.7,0-1.3.6-1.3,1.3v22.9c0,.7.6,1.3,1.3,1.3h36.6c.7,0,1.3-.6,1.3-1.3V7.7c0-.7-.6-1.3-1.3-1.3,0,0-2.2,0-2.2,0Z"/>
  <path class="st5" d="M33.6,19.4c0,4.2-3.3,7.6-7.5,7.6s-7.5-3.3-7.5-7.5,3.3-7.6,7.5-7.6,7.5,3.3,7.5,7.5Z"/>
  <g class="st1">
    <text class="st3" transform="translate(52.7 30.9)"><tspan x="0" y="0">WAYFARER</tspan></text>
  </g>
  <g class="st2">
    <text class="st0" transform="translate(52.7 30.9)"><tspan x="0" y="0">WAYFARER</tspan></text>
  </g>
</svg>